<?xml version="1.0" encoding="iso-8859-1"?>
<!-- Generator: Adobe Illustrator 19.0.0, SVG Export Plug-In . SVG Version: 6.00 Build 0)  -->
<svg version="1.1" id="Capa_1" xmlns="http://www.w3.org/2000/svg" xmlns:xlink="http://www.w3.org/1999/xlink" x="0px" y="0px"
	 viewBox="0 0 512 512" style="enable-background:new 0 0 512 512;" xml:space="preserve">
<g>
	<g>
		<path d="M32,108c-4.418,0-8,3.582-8,8v72h16v-64h48v-16H32z"/>
	</g>
</g>
<g>
	<g>
		<path d="M504,428h-16V196h-16v232H304c-2.122,0-4.156,0.844-5.656,2.344L284.688,444h-57.376l-13.656-13.656
			c-1.5-1.5-3.534-2.344-5.656-2.344H40v-32H24v32H8c-4.418,0-8,3.582-8,8v40c0,8.837,7.163,16,16,16h480c8.837,0,16-7.163,16-16
			v-40C512,431.582,508.418,428,504,428z M496,476H16v-32h188.688l13.648,13.656c1.502,1.502,3.54,2.346,5.664,2.344h64
			c2.122,0,4.156-0.844,5.656-2.344L307.312,444H496V476z"/>
	</g>
</g>
<g>
	<g>
		<path d="M440,196v200H56v8c0,4.418,3.582,8,8,8h384c4.418,0,8-3.582,8-8V196H440z"/>
	</g>
</g>
<g>
	<g>
		<path d="M64,140c-4.418,0-8,3.582-8,8v40h16v-32h16v-16H64z"/>
	</g>
</g>
<g>
	<g>
		<path d="M496,52H296v16h192v96H120V68h16V52h-24c-4.418,0-8,3.582-8,8v112c0,4.418,3.582,8,8,8h384c4.418,0,8-3.582,8-8V60
			C504,55.582,500.418,52,496,52z"/>
	</g>
</g>
<g>
	<g>
		<path d="M224,204H16c-4.418,0-8,3.582-8,8v160c0,4.418,3.582,8,8,8h208c4.418,0,8-3.582,8-8V212C232,207.582,228.418,204,224,204z
			 M37.845,364L120,294.48L202.155,364H37.845z M216,354.746l-57.16-48.366l24.568-19.66L216,319.312V354.746z M216,296.68
			l-26.336-26.336c-2.882-2.884-7.472-3.139-10.656-0.592l-32.617,26.094l-21.223-17.958c-2.983-2.524-7.353-2.524-10.336,0
			L24,354.746V220h192V296.68z"/>
	</g>
</g>
<g>
	<g>
		<path d="M64,236c-17.673,0-32,14.327-32,32c0,17.673,14.327,32,32,32c17.673,0,32-14.327,32-32C96,250.327,81.673,236,64,236z
			 M64,284c-8.837,0-16-7.163-16-16c0-8.837,7.163-16,16-16s16,7.163,16,16C80,276.837,72.837,284,64,284z"/>
	</g>
</g>
<g>
	<g>
		<rect x="256" y="204" width="40" height="16"/>
	</g>
</g>
<g>
	<g>
		<rect x="256" y="228" width="160" height="16"/>
	</g>
</g>
<g>
	<g>
		<rect x="256" y="260" width="104" height="16"/>
	</g>
</g>
<g>
	<g>
		<rect x="256" y="292" width="40" height="16"/>
	</g>
</g>
<g>
	<g>
		<rect x="256" y="324" width="160" height="16"/>
	</g>
</g>
<g>
	<g>
		<rect x="256" y="356" width="104" height="16"/>
	</g>
</g>
<g>
	<g>
		<path d="M272,20H160c-4.418,0-8,3.582-8,8v112c0,4.418,3.582,8,8,8h112c4.418,0,8-3.582,8-8V28C280,23.582,276.418,20,272,20z
			 M168,36h84.69L168,120.69V36z M264,132h-84.683L264,47.317V132z"/>
	</g>
</g>
<g>
	<g>
		<path d="M464,84h-24v16h16v16h16V92C472,87.582,468.418,84,464,84z"/>
	</g>
</g>
<g>
</g>
<g>
</g>
<g>
</g>
<g>
</g>
<g>
</g>
<g>
</g>
<g>
</g>
<g>
</g>
<g>
</g>
<g>
</g>
<g>
</g>
<g>
</g>
<g>
</g>
<g>
</g>
<g>
</g>
</svg>
